<?xml version="1.0" standalone="no"?>
<!DOCTYPE svg PUBLIC "-//W3C//DTD SVG 20010904//EN"
 "http://www.w3.org/TR/2001/REC-SVG-20010904/DTD/svg10.dtd">
<svg version="1.0" xmlns="http://www.w3.org/2000/svg"
 width="167.000000pt" height="143.000000pt" viewBox="0 0 167.000000 143.000000"
 preserveAspectRatio="xMidYMid meet">

<g transform="translate(0.000000,143.000000) scale(0.100000,-0.100000)"
fill="#000000" stroke="none">
<path d="M628 1398 c-21 -6 -38 -13 -38 -18 0 -4 -13 -13 -30 -20 -34 -14 -38
-27 -12 -37 9 -4 23 -13 30 -20 7 -7 20 -13 28 -13 8 0 14 -4 14 -8 0 -15 60
-31 88 -22 31 9 90 40 109 57 11 10 6 15 -22 29 -19 9 -35 20 -35 24 0 10 -64
40 -82 39 -7 -1 -30 -6 -50 -11z"/>
<path d="M450 1322 c-8 -3 -19 -11 -23 -18 -4 -8 -13 -14 -20 -14 -24 0 -97
-35 -97 -47 0 -6 21 -22 48 -35 26 -12 56 -31 66 -41 22 -22 76 -18 102 7 8 9
21 16 28 16 20 0 66 24 66 35 0 12 -29 38 -62 56 -13 7 -28 19 -33 26 -11 15
-50 23 -75 15z"/>
<path d="M198 1201 c-20 -10 -48 -21 -62 -25 -14 -3 -26 -11 -26 -16 0 -6 -9
-10 -20 -10 -28 0 -25 -18 5 -32 13 -6 27 -19 30 -28 6 -20 73 -54 100 -51 11
2 36 10 55 19 19 8 39 16 43 16 4 1 11 6 15 11 4 6 20 16 36 23 l30 13 -30 25
c-49 42 -103 74 -121 74 -10 -1 -34 -9 -55 -19z"/>
<path d="M610 1177 c-14 -6 -27 -14 -30 -17 -3 -3 -24 -12 -47 -18 -24 -7 -43
-16 -43 -20 0 -11 42 -47 80 -68 19 -10 44 -27 55 -37 20 -18 71 -17 85 1 7
10 95 52 109 52 26 0 9 38 -26 56 -20 10 -53 29 -71 42 -38 24 -73 27 -112 9z"/>
<path d="M45 1010 c5 -77 10 -98 25 -112 11 -9 20 -21 20 -27 0 -6 3 -11 8
-11 16 0 63 -48 53 -55 -6 -3 -11 -1 -11 4 0 6 -6 11 -13 11 -7 0 -19 9 -27
20 -8 11 -21 20 -28 20 -12 0 -13 -15 -9 -76 5 -69 8 -78 36 -103 17 -15 31
-32 31 -37 0 -5 16 -19 35 -32 l35 -22 -3 87 c-2 48 -8 88 -13 90 -6 2 -8 40
-6 93 5 101 -2 140 -23 140 -8 0 -15 6 -15 13 0 7 -14 21 -30 31 -17 9 -40 27
-51 39 l-20 22 6 -95z"/>
<path d="M820 1043 c-30 -14 -58 -31 -62 -38 -4 -7 -20 -16 -34 -19 l-27 -7
39 -35 c21 -20 51 -42 66 -50 16 -8 28 -19 28 -24 0 -6 7 -10 15 -10 8 0 15
-4 15 -9 0 -11 70 4 79 16 3 5 32 22 64 38 34 17 57 35 57 44 0 9 -18 24 -40
34 -22 10 -40 25 -40 32 0 7 -12 16 -27 20 -15 3 -30 10 -33 14 -13 21 -49 19
-100 -6z"/>
<path d="M1230 1000 c-18 -16 -39 -30 -46 -30 -7 0 -19 -8 -26 -18 -7 -11 -23
-24 -35 -30 -12 -7 -22 -20 -21 -30 0 -9 -3 -48 -7 -86 l-8 -68 24 7 c13 4 38
19 56 34 18 14 46 36 62 49 22 16 29 30 29 52 -1 16 5 36 12 45 10 12 10 15
-1 15 -10 0 -11 2 -2 8 6 4 14 24 18 45 9 47 -8 49 -55 7z"/>
<path d="M210 856 c0 -66 4 -97 13 -105 8 -6 17 -8 21 -4 4 4 9 -3 13 -15 3
-12 9 -22 14 -22 10 0 42 -25 75 -60 29 -30 28 -33 25 118 l-2 67 -64 50 c-35
28 -64 53 -64 58 -1 4 -8 7 -16 7 -12 0 -15 -17 -15 -94z"/>
<path d="M605 921 c-16 -9 -33 -20 -36 -25 -4 -5 -11 -6 -16 -3 -6 4 -19 -3
-31 -13 -12 -11 -27 -20 -34 -20 -7 0 -20 -5 -28 -10 -12 -8 -6 -18 35 -55 28
-24 55 -45 61 -45 7 0 14 -6 17 -14 3 -8 17 -22 32 -32 22 -14 29 -15 58 -3
17 7 37 17 42 22 9 7 35 25 90 59 11 7 23 17 27 22 9 13 -2 36 -17 36 -8 0
-29 14 -47 30 -18 17 -38 30 -45 30 -6 0 -18 6 -25 13 -21 22 -51 24 -83 8z"/>
<path d="M1060 890 c0 -5 -6 -10 -14 -10 -8 0 -16 -6 -19 -13 -3 -8 -30 -27
-61 -43 -59 -31 -57 -25 -72 -149 -3 -27 -11 -53 -16 -56 -6 -4 -5 -8 3 -11
16 -5 75 25 97 49 9 11 34 27 54 36 22 11 37 24 36 35 -1 24 12 134 18 155 4
11 0 17 -10 17 -9 0 -16 -4 -16 -10z"/>
<path d="M419 790 c-1 -8 -3 -51 -4 -95 -3 -70 0 -85 21 -117 13 -21 31 -38
40 -38 8 0 32 -18 54 -40 62 -63 70 -57 70 58 0 83 -3 102 -18 115 -10 10 -23
17 -28 17 -5 0 -24 14 -42 30 -18 17 -38 30 -43 30 -13 0 -34 20 -42 40 -5 13
-6 13 -8 0z"/>
<path d="M1185 749 c-22 -11 -43 -26 -48 -34 -4 -8 -14 -15 -21 -15 -24 0 -44
-35 -50 -88 -3 -30 -8 -57 -10 -61 -3 -4 -1 -13 3 -20 6 -9 20 -5 60 19 28 17
51 36 51 41 0 5 7 9 15 9 14 0 28 37 44 124 5 25 6 46 2 46 -3 -1 -24 -10 -46
-21z"/>
<path d="M815 743 c-16 -9 -32 -19 -35 -23 -3 -4 -28 -20 -57 -35 -45 -24 -53
-34 -62 -71 -17 -66 -14 -164 4 -164 8 0 15 4 15 9 0 5 9 13 20 16 11 4 32 17
45 31 13 13 29 24 35 24 5 0 10 3 10 8 0 4 10 12 22 17 15 7 24 20 25 40 4 43
10 165 9 165 -1 -1 -14 -8 -31 -17z"/>
<path d="M78 615 c2 -14 9 -25 14 -25 7 0 6 -5 -1 -13 -6 -8 -8 -17 -4 -20 3
-4 7 -18 9 -31 2 -21 90 -126 106 -126 3 0 8 18 10 40 2 22 0 40 -4 40 -4 0
-4 16 -1 35 3 19 2 35 -3 35 -5 0 -31 20 -57 45 -55 51 -77 57 -69 20z"/>
<path d="M1132 534 c-85 -47 -106 -82 -117 -195 -3 -24 53 -7 80 25 11 13 29
25 39 27 20 4 46 72 46 122 0 15 5 27 10 27 6 0 10 5 10 10 0 15 -21 10 -68
-16z"/>
</g>
</svg>
