<?xml version="1.0" standalone="no"?>
<!DOCTYPE svg PUBLIC "-//W3C//DTD SVG 20010904//EN"
 "http://www.w3.org/TR/2001/REC-SVG-20010904/DTD/svg10.dtd">
<svg version="1.0" xmlns="http://www.w3.org/2000/svg"
 width="1536.000000pt" height="1024.000000pt" viewBox="0 0 1536.000000 1024.000000"
 preserveAspectRatio="xMidYMid meet">

<g transform="translate(0.000000,1024.000000) scale(0.100000,-0.100000)"
fill="#000000" stroke="none">
<path d="M3515 7715 c-16 -9 -39 -17 -50 -19 -35 -3 -125 -37 -125 -47 0 -5
-10 -9 -21 -9 -28 0 -139 -50 -139 -62 0 -6 -7 -8 -15 -4 -19 7 -125 -33 -132
-51 -3 -7 -16 -13 -28 -13 -31 0 -78 -18 -87 -33 -11 -18 2 -59 26 -85 24 -27
87 -62 111 -62 8 0 15 -4 15 -10 0 -14 86 -70 109 -70 12 0 21 -4 21 -10 0
-13 90 -70 111 -70 9 0 23 -10 32 -22 8 -13 32 -32 53 -43 22 -10 47 -25 56
-33 23 -19 107 -10 123 12 7 9 19 16 27 16 14 0 84 29 118 50 8 4 41 18 73 30
31 13 61 30 66 39 5 9 13 13 16 9 9 -8 100 25 124 45 9 7 44 22 79 33 34 10
62 22 62 27 0 4 16 15 35 24 21 10 35 24 35 35 0 10 -4 18 -9 18 -5 0 -28 16
-51 35 -23 19 -60 40 -83 47 -23 7 -46 18 -50 25 -4 7 -12 13 -18 13 -5 0 -27
12 -49 26 -21 14 -43 23 -48 20 -5 -3 -15 1 -22 9 -17 21 -99 65 -121 65 -11
0 -19 4 -19 8 0 17 -96 61 -145 67 -36 4 -58 2 -80 -10z"/>
<path d="M2700 7383 c-8 -3 -24 -13 -35 -23 -11 -9 -35 -17 -53 -19 -30 -1
-46 -8 -102 -40 -8 -5 -37 -14 -65 -20 -27 -7 -61 -20 -75 -29 -14 -9 -47 -23
-75 -30 -27 -7 -61 -20 -75 -30 -14 -9 -29 -17 -35 -17 -5 -1 -32 -7 -58 -14
-39 -11 -50 -20 -62 -48 -17 -41 -11 -59 27 -79 17 -9 43 -30 58 -47 15 -18
45 -41 67 -52 21 -11 44 -28 51 -37 7 -10 34 -30 60 -45 26 -15 71 -47 100
-70 29 -24 58 -43 63 -43 6 0 29 -16 52 -35 37 -32 46 -35 82 -29 22 3 64 19
94 35 30 16 62 29 72 29 9 0 39 11 66 24 91 45 164 76 177 76 8 0 17 7 20 16
3 8 11 12 16 9 6 -4 16 -3 23 2 7 5 35 18 62 28 28 10 54 24 58 32 5 7 12 11
17 8 10 -6 80 22 103 43 9 8 17 25 17 38 0 24 -46 68 -82 79 -13 4 -32 15 -43
24 -28 25 -94 61 -109 61 -7 0 -21 9 -31 20 -10 11 -24 20 -32 20 -7 0 -13 3
-13 8 0 4 -24 18 -52 32 -29 14 -75 40 -101 57 -27 18 -53 30 -58 27 -5 -3
-24 6 -42 20 -33 25 -56 30 -87 19z"/>
<path d="M4315 7321 c-17 -4 -30 -13 -30 -21 0 -11 15 -15 58 -17 56 -2 69 5
45 24 -21 16 -41 20 -73 14z"/>
<path d="M4163 7260 c-42 -19 -53 -33 -34 -45 13 -7 106 37 104 50 -3 17 -26
15 -70 -5z"/>
<path d="M4437 7274 c-13 -14 -7 -22 37 -48 53 -31 56 -31 56 -8 0 11 -15 26
-37 37 -21 11 -41 21 -44 22 -3 2 -8 0 -12 -3z"/>
<path d="M4008 7189 c-40 -21 -50 -39 -20 -39 25 1 102 37 102 50 0 16 -42 11
-82 -11z"/>
<path d="M4560 7190 c0 -10 81 -60 98 -60 25 0 10 26 -28 48 -41 23 -70 28
-70 12z"/>
<path d="M3871 7127 c-45 -22 -65 -47 -38 -47 28 0 109 40 105 52 -7 19 -20
18 -67 -5z"/>
<path d="M4700 7110 c0 -14 60 -50 83 -50 27 0 20 16 -19 39 -38 23 -64 27
-64 11z"/>
<path d="M3713 7054 c-38 -16 -50 -32 -29 -40 18 -7 106 31 106 46 0 14 -39
11 -77 -6z"/>
<path d="M4840 7033 c0 -20 97 -76 106 -62 8 14 -4 27 -47 54 -46 30 -59 31
-59 8z"/>
<path d="M1840 7015 c-14 -8 -37 -14 -52 -15 -35 0 -118 -36 -118 -51 0 -7 -9
-9 -21 -6 -21 6 -122 -34 -134 -52 -3 -6 -17 -11 -30 -11 -28 0 -110 -34 -119
-49 -4 -6 -18 -11 -30 -11 -34 0 -97 -29 -125 -56 -24 -24 -24 -25 -5 -47 27
-32 57 -57 70 -57 6 0 34 -21 62 -47 68 -64 132 -117 160 -134 13 -8 41 -30
61 -49 142 -132 207 -165 268 -136 18 9 33 20 33 26 0 5 11 10 24 10 14 0 28
5 31 10 3 6 15 10 26 10 11 0 22 7 25 15 4 8 15 15 25 15 22 0 101 37 110 52
3 5 21 11 39 13 18 3 38 9 44 15 5 5 17 10 26 10 9 0 25 9 35 20 10 11 26 20
36 20 9 0 43 14 74 30 31 17 67 30 80 30 33 0 50 24 33 46 -39 49 -184 164
-206 164 -4 0 -21 14 -37 30 -16 17 -35 30 -42 30 -7 0 -32 18 -54 40 -23 22
-49 40 -58 40 -9 1 -34 19 -56 40 -23 23 -49 40 -62 40 -14 0 -23 6 -23 15 0
20 -56 20 -90 0z"/>
<path d="M3655 6949 c-4 -6 -5 -12 -4 -13 21 -16 85 -56 91 -56 21 0 4 38 -27
58 -39 25 -51 27 -60 11z"/>
<path d="M4911 6926 c-14 -15 -19 -26 -12 -30 17 -11 51 13 51 34 0 26 -12 25
-39 -4z"/>
<path d="M3416 6928 c-43 -9 -106 -44 -106 -59 0 -5 -10 -8 -22 -8 -30 2 -78
-18 -105 -43 -12 -11 -28 -18 -35 -15 -14 5 -103 -36 -113 -53 -3 -5 -17 -10
-30 -10 -24 0 -84 -30 -117 -58 -9 -8 -21 -12 -25 -9 -18 11 -107 -48 -118
-77 -9 -26 -6 -31 34 -67 24 -22 50 -39 57 -39 7 0 36 -22 63 -50 28 -27 57
-50 66 -50 9 0 27 -13 40 -28 13 -15 40 -37 60 -47 20 -11 51 -33 69 -50 18
-16 50 -39 71 -50 22 -11 59 -35 83 -52 24 -18 48 -33 53 -33 5 0 42 15 82 33
40 18 96 44 125 57 29 13 58 30 64 37 6 7 20 13 32 13 12 0 44 14 72 32 27 18
52 31 57 30 12 -3 111 49 120 64 4 7 14 11 22 8 13 -5 80 25 115 52 8 6 27 14
43 18 22 5 27 12 27 37 0 38 -50 89 -86 89 -14 0 -27 7 -30 15 -7 18 -95 75
-117 75 -9 0 -20 6 -24 14 -12 20 -83 66 -103 66 -10 0 -20 6 -23 13 -6 17
-95 77 -113 77 -6 0 -26 13 -43 29 -37 35 -93 50 -145 39z"/>
<path d="M5084 6886 c-10 -8 -17 -17 -14 -19 9 -9 109 -11 117 -3 12 11 -27
36 -57 36 -14 0 -35 -6 -46 -14z"/>
<path d="M4797 6863 c-31 -17 -44 -30 -38 -36 13 -13 106 26 106 44 0 21 -19
19 -68 -8z"/>
<path d="M3787 6873 c-13 -13 -6 -21 37 -47 50 -29 66 -32 66 -12 0 8 -20 26
-44 40 -49 29 -50 29 -59 19z"/>
<path d="M6810 6869 c-263 -40 -463 -192 -553 -420 -60 -151 -62 -168 -62
-614 0 -397 1 -413 23 -495 56 -207 165 -346 339 -433 135 -67 213 -82 418
-81 140 0 185 4 258 22 148 37 265 94 390 190 l57 45 0 416 0 416 -360 -3
-360 -2 0 -165 0 -165 155 0 155 0 -2 -172 -3 -173 -70 -24 c-58 -20 -91 -24
-195 -25 -122 -1 -127 0 -192 32 -165 81 -205 226 -195 697 6 274 17 351 64
436 96 177 393 210 521 59 25 -29 62 -116 72 -170 6 -29 12 -55 14 -58 3 -2
93 9 201 24 l196 28 -6 50 c-40 308 -197 493 -480 567 -94 24 -286 33 -385 18z"/>
<path d="M4972 6833 c-43 -26 -54 -43 -26 -43 17 0 94 42 94 51 0 18 -30 14
-68 -8z"/>
<path d="M5225 6839 c-8 -13 -10 -12 42 -38 50 -25 63 -26 63 -6 0 8 -19 24
-42 35 -48 23 -54 24 -63 9z"/>
<path d="M7978 5850 l2 -1000 205 0 205 0 0 364 0 365 103 3 c56 2 103 1 105
-2 1 -3 85 -167 186 -365 l184 -360 226 -3 c124 -1 226 0 226 4 0 3 -61 121
-136 262 -209 394 -287 543 -283 546 2 2 29 16 58 31 113 57 208 182 247 326
23 85 23 287 0 383 -40 168 -129 282 -278 355 -158 78 -261 91 -718 91 l-335
0 3 -1000z m815 586 c87 -42 110 -83 115 -203 5 -117 -11 -166 -73 -221 -67
-59 -125 -74 -297 -80 l-148 -4 0 272 0 272 173 -3 c165 -4 174 -5 230 -33z"/>
<path d="M10070 6748 c-18 -57 -72 -233 -122 -393 -49 -159 -168 -544 -264
-855 -96 -311 -181 -584 -189 -607 l-14 -43 208 0 207 0 56 198 56 197 314 3
315 2 32 -117 c17 -65 42 -154 54 -198 l23 -80 218 -3 c205 -2 218 -1 211 15
-8 23 -132 410 -315 983 -110 344 -271 850 -315 988 -3 9 -57 12 -224 12
l-220 0 -31 -102z m267 -420 c7 -33 53 -207 103 -387 49 -181 90 -331 90 -335
0 -3 -94 -6 -210 -6 -115 0 -210 2 -210 5 0 2 29 107 65 232 69 245 135 510
135 545 0 37 14 9 27 -54z"/>
<path d="M11340 5850 l0 -1000 207 0 206 0 -7 658 c-6 641 -6 656 12 627 17
-28 232 -435 398 -752 l69 -133 115 0 115 0 119 228 c196 375 358 682 360 682
0 0 0 -295 -2 -655 l-3 -655 200 2 201 3 3 998 2 997 -225 0 c-204 0 -226 -2
-236 -17 -6 -10 -87 -166 -179 -348 -93 -181 -210 -410 -261 -509 l-92 -178
-141 273 c-77 151 -198 388 -268 526 l-128 253 -232 0 -233 0 0 -1000z"/>
<path d="M13710 5850 l0 -1000 215 0 215 0 0 1000 0 1000 -215 0 -215 0 0
-1000z"/>
<path d="M4658 6789 c-37 -19 -45 -29 -32 -42 8 -8 104 43 104 55 0 14 -33 8
-72 -13z"/>
<path d="M3920 6777 c0 -13 68 -57 89 -57 22 0 10 20 -26 45 -42 28 -63 32
-63 12z"/>
<path d="M4828 6758 c-38 -20 -46 -32 -28 -43 11 -7 100 42 100 56 0 14 -31 8
-72 -13z"/>
<path d="M5367 6773 c-13 -13 -6 -21 38 -48 42 -24 65 -26 65 -5 0 4 -21 20
-46 34 -53 30 -49 28 -57 19z"/>
<path d="M4518 6719 c-47 -24 -50 -44 -6 -35 37 7 78 32 78 46 0 16 -32 11
-72 -11z"/>
<path d="M4050 6700 c0 -12 70 -60 87 -60 24 0 13 25 -22 48 -36 23 -65 29
-65 12z"/>
<path d="M4698 6689 c-36 -19 -52 -49 -25 -49 19 0 90 44 89 55 -2 17 -26 15
-64 -6z"/>
<path d="M5496 6691 c-7 -10 67 -61 89 -61 27 0 16 19 -25 45 -42 27 -56 30
-64 16z"/>
<path d="M4383 6649 c-38 -18 -59 -49 -33 -49 22 0 101 43 97 53 -5 17 -19 16
-64 -4z"/>
<path d="M1156 6632 c-2 -4 0 -27 5 -52 6 -25 12 -67 15 -95 2 -27 9 -64 15
-82 5 -17 9 -38 8 -45 -3 -15 11 -99 18 -111 3 -4 6 -35 8 -68 3 -34 9 -67 16
-75 6 -7 8 -22 5 -32 -10 -32 13 -112 42 -149 34 -44 80 -90 160 -162 34 -31
80 -73 102 -94 22 -20 56 -48 75 -62 20 -13 45 -35 56 -49 11 -14 34 -35 50
-47 46 -32 59 -13 48 71 -5 36 -10 90 -12 120 -2 30 -7 66 -12 79 -4 13 -9 47
-10 75 -7 124 -17 211 -26 227 -5 10 -7 29 -3 43 3 14 -1 37 -11 56 -21 41
-95 110 -117 110 -10 0 -18 4 -18 9 0 14 -83 91 -97 91 -7 0 -16 6 -20 14 -4
8 -26 28 -48 45 -22 18 -63 53 -92 79 -114 104 -144 124 -157 104z"/>
<path d="M4563 6618 c-44 -22 -51 -32 -33 -43 14 -9 100 36 100 52 0 18 -19
16 -67 -9z"/>
<path d="M4180 6617 c0 -23 68 -51 99 -41 37 13 31 28 -14 36 -22 3 -50 9 -62
13 -17 5 -23 3 -23 -8z"/>
<path d="M5630 6605 c0 -8 4 -15 9 -15 5 0 23 -12 40 -26 31 -26 65 -27 55 -1
-5 15 -74 57 -93 57 -6 0 -11 -7 -11 -15z"/>
<path d="M4429 6540 c-35 -34 -35 -65 -2 -87 21 -14 23 -14 30 2 4 12 0 23
-12 31 -17 13 -17 14 6 33 13 11 27 20 32 21 4 0 7 7 7 15 0 24 -29 17 -61
-15z"/>
<path d="M2493 6534 c-41 -18 -45 -39 -5 -29 15 4 41 8 57 9 47 4 48 5 35 21
-15 18 -44 18 -87 -1z"/>
<path d="M2610 6496 c0 -20 80 -70 92 -58 7 7 -4 21 -32 41 -47 34 -60 38 -60
17z"/>
<path d="M5683 6482 c-35 -18 -44 -42 -15 -41 23 1 75 32 74 44 -1 16 -25 15
-59 -3z"/>
<path d="M2363 6470 c-41 -18 -50 -29 -37 -43 9 -8 104 41 104 53 0 15 -20 12
-67 -10z"/>
<path d="M4241 6445 c-18 -8 -42 -15 -52 -15 -23 0 -114 -45 -124 -60 -3 -5
-15 -10 -27 -10 -24 0 -118 -49 -118 -62 0 -4 -9 -8 -20 -8 -26 0 -120 -47
-120 -60 0 -6 -9 -10 -20 -10 -23 0 -115 -44 -125 -60 -3 -5 -15 -10 -25 -10
-61 0 -131 -70 -110 -109 12 -24 72 -71 90 -71 6 0 21 -11 31 -24 11 -13 39
-34 64 -46 25 -12 48 -27 53 -34 11 -18 90 -77 99 -74 4 1 26 -14 48 -35 22
-20 46 -37 53 -37 8 0 37 -20 65 -45 28 -24 54 -42 58 -39 4 2 14 -5 21 -15
32 -45 99 -48 153 -7 19 14 39 26 45 26 16 0 95 47 110 65 7 8 21 15 32 15 10
0 31 8 46 18 15 10 41 28 59 40 18 12 37 22 43 22 14 0 93 52 103 67 4 7 17
13 29 13 11 0 43 16 69 35 27 19 53 35 58 35 15 0 81 41 81 50 0 23 -21 60
-34 60 -8 0 -19 6 -23 13 -11 17 -68 57 -83 57 -6 0 -28 13 -48 29 -20 16 -55
39 -78 52 -22 13 -66 41 -97 62 -31 20 -63 37 -72 37 -8 0 -15 4 -15 9 0 7
-175 142 -183 141 -1 -1 -17 -7 -36 -15z"/>
<path d="M2227 6408 c-26 -11 -47 -27 -47 -34 0 -8 4 -14 9 -14 17 0 101 41
101 50 0 18 -17 18 -63 -2z"/>
<path d="M4490 6415 c0 -18 86 -78 100 -70 18 11 10 23 -38 54 -55 35 -62 37
-62 16z"/>
<path d="M5553 6404 c-45 -27 -55 -44 -25 -44 21 0 92 47 92 60 0 16 -23 11
-67 -16z"/>
<path d="M2740 6406 c0 -14 68 -66 88 -66 24 0 10 26 -29 53 -44 30 -59 34
-59 13z"/>
<path d="M5716 6395 c-20 -14 -64 -39 -97 -57 -34 -17 -63 -37 -66 -44 -3 -8
-11 -14 -19 -14 -20 0 -124 -60 -124 -71 0 -5 -21 -19 -46 -29 -26 -11 -60
-30 -77 -42 -17 -13 -56 -35 -87 -50 -117 -57 -143 -80 -135 -116 3 -12 1 -31
-5 -41 -11 -22 -33 -183 -35 -256 -1 -28 -4 -55 -7 -60 -8 -15 -19 -71 -24
-124 -13 -144 -15 -214 -7 -222 6 -6 30 5 64 31 29 22 57 40 61 40 9 0 81 48
88 59 3 4 22 16 43 26 21 10 51 31 68 46 17 16 35 29 41 29 14 0 94 48 108 65
6 7 25 17 41 20 16 4 46 22 66 41 19 19 44 34 54 34 24 0 50 52 55 109 2 25
10 72 18 103 7 31 12 59 9 61 -2 3 3 26 11 51 9 26 16 64 16 86 0 21 4 50 10
65 5 14 15 65 21 113 6 48 13 106 16 130 7 51 -6 54 -61 17z"/>
<path d="M2078 6337 c-37 -21 -51 -47 -25 -47 19 0 90 44 89 55 -2 17 -25 14
-64 -8z"/>
<path d="M5416 6319 c-34 -21 -46 -33 -38 -41 13 -13 102 37 102 58 0 20 -10
18 -64 -17z"/>
<path d="M4625 6331 c-7 -12 65 -71 87 -71 30 0 20 17 -26 50 -49 33 -52 34
-61 21z"/>
<path d="M2860 6318 c0 -12 78 -68 94 -68 19 0 1 31 -32 54 -42 28 -62 33 -62
14z"/>
<path d="M1944 6270 c-45 -20 -61 -37 -48 -50 10 -10 114 46 114 61 0 13 -19
10 -66 -11z"/>
<path d="M5288 6246 c-47 -28 -51 -32 -43 -45 4 -7 17 -6 38 5 42 22 68 45 61
55 -7 12 -13 11 -56 -15z"/>
<path d="M2990 6228 c0 -14 71 -68 89 -68 23 0 9 26 -28 53 -43 29 -61 34 -61
15z"/>
<path d="M4760 6228 c0 -12 78 -68 94 -68 17 0 2 28 -28 53 -37 29 -66 35 -66
15z"/>
<path d="M1854 6178 c-8 -12 52 -67 74 -68 22 0 12 27 -20 54 -35 29 -44 31
-54 14z"/>
<path d="M5153 6164 c-24 -14 -43 -32 -43 -40 0 -19 3 -18 61 12 42 21 48 28
39 40 -7 7 -13 14 -14 14 0 -1 -20 -12 -43 -26z"/>
<path d="M4892 6138 c3 -7 27 -27 56 -44 42 -26 58 -30 89 -25 53 9 53 37 0
33 -28 -3 -49 3 -77 22 -42 28 -74 34 -68 14z"/>
<path d="M3120 6129 c0 -6 10 -19 21 -28 19 -15 20 -20 8 -39 -16 -25 -5 -41
19 -26 26 17 27 59 1 83 -25 23 -49 28 -49 10z"/>
<path d="M1797 6103 c-11 -10 -8 -51 4 -59 6 -3 9 -18 6 -33 -3 -14 -1 -46 4
-71 5 -25 11 -75 14 -111 2 -37 9 -76 16 -87 10 -15 10 -24 1 -34 -10 -13 -3
-67 15 -118 3 -8 7 -35 9 -60 11 -164 10 -161 48 -199 20 -20 50 -53 67 -73
17 -21 36 -38 41 -38 6 0 31 -21 57 -47 70 -71 178 -163 190 -163 6 0 11 -6
11 -12 0 -18 148 -158 167 -158 12 0 14 18 8 128 -3 70 -9 138 -12 152 -3 14
-7 54 -8 90 -2 36 -6 99 -9 140 -3 41 -7 105 -9 141 -2 36 -11 82 -21 102 -18
40 -73 87 -99 87 -10 0 -17 6 -17 14 0 7 -21 31 -46 52 -25 21 -69 60 -98 87
-29 26 -60 47 -70 47 -9 0 -21 10 -27 23 -6 12 -28 36 -50 52 -21 17 -68 58
-103 93 -64 61 -76 69 -89 55z"/>
<path d="M1966 6081 c-6 -9 67 -71 83 -71 19 0 12 15 -22 48 -33 32 -51 39
-61 23z"/>
<path d="M3048 6004 c-74 -37 -58 -63 16 -27 34 16 52 38 38 47 -4 2 -28 -7
-54 -20z"/>
<path d="M2090 5976 c0 -20 78 -72 91 -59 6 6 -4 20 -30 41 -43 35 -61 40 -61
18z"/>
<path d="M3230 5954 c-25 -12 -60 -28 -79 -35 -18 -7 -45 -22 -60 -34 -14 -12
-46 -27 -70 -34 -24 -7 -54 -23 -68 -37 -13 -13 -27 -23 -31 -21 -16 5 -112
-45 -122 -63 -6 -12 -16 -18 -21 -14 -12 7 -134 -51 -166 -80 -13 -11 -23 -28
-23 -39 0 -17 103 -127 119 -127 4 0 28 -20 55 -45 27 -24 58 -47 68 -51 11
-3 35 -23 54 -44 19 -21 50 -45 69 -54 19 -10 35 -21 35 -26 0 -5 21 -25 48
-45 26 -19 63 -49 82 -66 91 -81 147 -108 165 -80 3 5 31 21 63 36 31 14 74
39 94 55 20 17 43 30 50 30 15 0 89 47 100 64 3 5 17 11 30 13 12 2 40 16 61
31 42 30 45 32 100 58 22 11 50 29 63 42 14 12 30 22 36 22 13 0 116 58 122
69 11 18 -29 81 -63 98 -20 10 -40 23 -46 29 -19 21 -73 54 -88 54 -9 0 -22 8
-29 18 -20 27 -83 72 -101 72 -10 0 -17 6 -17 13 0 13 -88 77 -106 77 -6 0
-20 11 -31 24 -11 12 -39 32 -61 42 -23 10 -42 23 -42 27 0 5 -10 17 -22 28
-32 26 -110 23 -168 -7z"/>
<path d="M2896 5924 c-25 -17 -35 -29 -29 -35 13 -13 103 30 103 48 0 20 -31
14 -74 -13z"/>
<path d="M4905 5889 c-16 -11 -55 -33 -86 -49 -31 -16 -63 -35 -70 -42 -8 -8
-40 -26 -73 -42 -32 -16 -68 -39 -79 -52 -11 -13 -24 -21 -28 -18 -10 6 -109
-55 -109 -67 0 -5 -9 -9 -19 -9 -11 0 -42 -18 -70 -40 -28 -22 -55 -40 -61
-40 -6 0 -24 -7 -40 -15 -40 -21 -64 -69 -56 -113 3 -19 0 -44 -5 -55 -11 -19
-20 -110 -23 -242 -1 -38 -5 -79 -9 -90 -6 -18 -17 -160 -19 -234 0 -51 27
-45 144 33 29 20 71 48 92 63 22 15 51 34 65 42 14 7 45 29 68 47 23 19 46 34
52 34 16 0 79 40 84 54 3 7 18 17 34 20 30 8 92 51 106 73 4 7 14 13 22 13 40
0 77 118 79 255 1 28 5 57 10 64 6 8 10 44 11 80 0 37 4 72 8 79 5 7 10 40 12
75 2 34 9 86 15 115 18 83 2 101 -55 61z"/>
<path d="M2206 5891 c-7 -11 63 -81 82 -81 22 0 12 25 -21 51 -46 36 -55 41
-61 30z"/>
<path d="M2768 5854 c-48 -24 -62 -44 -33 -44 22 0 95 38 95 50 0 19 -16 17
-62 -6z"/>
<path d="M1286 5812 c-3 -5 0 -35 5 -68 6 -32 14 -96 19 -142 5 -45 12 -87 15
-93 4 -5 8 -33 9 -62 2 -29 8 -68 14 -87 6 -19 15 -71 20 -115 8 -59 15 -84
30 -95 11 -9 22 -25 26 -36 3 -10 44 -53 91 -94 47 -41 109 -99 137 -127 28
-29 55 -53 59 -53 5 0 38 -30 74 -66 74 -74 102 -81 97 -24 -1 19 -4 58 -6 87
-2 28 -7 56 -11 63 -4 6 -8 41 -9 76 -1 35 -7 69 -14 76 -6 6 -9 29 -5 58 4
32 0 56 -10 77 -11 20 -13 33 -6 40 27 27 -47 173 -87 173 -8 0 -18 10 -23 23
-5 13 -25 37 -45 53 -20 16 -63 55 -95 87 -31 31 -61 57 -66 57 -4 0 -33 27
-62 60 -30 33 -61 60 -69 60 -8 0 -14 4 -14 9 0 13 -50 71 -60 71 -5 0 -11 -4
-14 -8z"/>
<path d="M2633 5780 c-39 -17 -59 -50 -31 -50 20 0 99 51 93 61 -8 12 -13 12
-62 -11z"/>
<path d="M2330 5782 c0 -13 64 -72 78 -72 23 0 12 29 -21 54 -34 26 -57 33
-57 18z"/>
<path d="M2510 5720 c-8 -5 -25 -10 -37 -10 -28 0 -30 -26 -3 -33 24 -6 90 23
90 40 0 15 -29 17 -50 3z"/>
<path d="M5550 5532 c-19 -15 -57 -39 -83 -52 -27 -14 -57 -35 -67 -47 -10
-13 -24 -23 -31 -23 -17 0 -119 -69 -119 -81 0 -5 -5 -9 -11 -9 -16 0 -107
-60 -113 -75 -2 -7 -18 -15 -35 -18 -18 -4 -53 -27 -83 -57 -44 -43 -52 -57
-55 -93 -1 -23 -8 -68 -15 -100 -8 -42 -8 -61 0 -69 8 -8 6 -17 -5 -35 -10
-14 -17 -50 -18 -86 -1 -34 -5 -73 -9 -88 -7 -23 -9 -44 -18 -159 -2 -25 1
-35 13 -38 17 -3 192 110 212 137 6 10 23 21 37 24 14 3 43 22 65 40 22 19 54
41 71 50 18 9 46 30 63 47 17 18 31 29 31 25 0 -12 86 53 124 95 38 42 60 99
50 132 -3 9 2 38 10 63 9 25 16 62 16 81 0 19 5 44 11 55 6 11 12 50 14 87 1
37 8 81 13 99 10 30 15 80 13 111 -2 21 -45 13 -81 -16z"/>
<path d="M2512 5403 c-1 -49 3 -100 9 -116 8 -18 8 -31 1 -40 -10 -12 -1 -115
13 -136 3 -6 2 -19 -3 -28 -6 -11 -6 -37 -1 -68 10 -54 18 -159 18 -244 0 -51
19 -91 43 -91 6 0 34 -20 62 -45 29 -25 57 -45 62 -45 5 0 17 -14 26 -30 10
-17 38 -43 62 -58 25 -15 48 -35 51 -44 3 -9 29 -34 58 -55 29 -21 72 -58 97
-81 156 -151 154 -150 176 -118 12 19 13 30 6 39 -8 10 -8 24 0 50 8 27 8 43
0 62 -8 17 -8 33 -1 55 6 17 8 47 5 68 -4 20 -6 45 -6 55 3 46 2 115 -1 249
l-4 147 -34 35 c-19 20 -41 36 -48 36 -8 0 -16 7 -20 16 -10 26 -76 83 -95 84
-10 0 -18 6 -18 13 0 15 -72 77 -89 77 -6 0 -32 21 -59 48 -81 80 -164 152
-177 152 -7 0 -15 9 -18 19 -5 20 -82 81 -102 81 -7 0 -12 -29 -13 -87z"/>
<path d="M4026 5375 c-20 -14 -41 -25 -47 -25 -14 0 -82 -44 -98 -64 -7 -9
-21 -16 -30 -16 -9 0 -39 -15 -66 -34 -28 -19 -72 -45 -100 -59 -27 -13 -61
-34 -74 -46 -13 -11 -31 -21 -39 -21 -18 0 -112 -60 -112 -72 0 -4 -7 -8 -16
-8 -20 0 -123 -67 -125 -81 -2 -13 -5 -21 -12 -39 -12 -29 -3 -718 10 -731 9
-9 33 2 102 46 50 31 91 61 91 66 0 5 15 15 33 23 17 7 46 26 62 42 17 15 50
39 75 52 25 13 54 34 65 47 11 13 31 25 45 29 14 3 42 20 61 38 20 18 53 42
74 53 20 10 45 29 55 42 10 13 22 23 28 23 24 0 41 51 48 146 3 54 8 122 11
149 2 28 5 84 8 125 10 169 14 227 21 267 4 29 2 48 -6 58 -17 20 -21 19 -64
-10z"/>
<path d="M1907 5193 c6 -43 20 -64 31 -47 4 6 16 14 26 18 18 6 17 9 -9 36
-40 42 -55 39 -48 -7z"/>
<path d="M1990 5136 c0 -7 19 -31 42 -52 54 -49 64 -27 12 27 -40 41 -54 48
-54 25z"/>
<path d="M1922 5046 c5 -59 12 -76 28 -60 13 13 -2 106 -19 112 -11 4 -13 -7
-9 -52z"/>
<path d="M4793 5032 c-42 -26 -56 -52 -30 -52 7 0 22 7 33 15 29 22 32 19 26
-30 -4 -36 -2 -45 11 -45 10 0 18 14 22 40 7 40 -1 100 -13 100 -4 0 -26 -13
-49 -28z"/>
<path d="M1403 4990 c3 -28 9 -55 13 -61 3 -6 7 -34 9 -62 3 -67 24 -217 31
-229 4 -6 8 -34 10 -64 1 -30 10 -66 18 -81 8 -16 19 -37 25 -49 5 -11 32 -41
60 -66 28 -25 51 -50 51 -56 0 -5 19 -26 43 -46 23 -20 49 -43 57 -52 8 -8 33
-33 55 -55 52 -52 48 -47 99 -102 51 -56 82 -61 79 -12 -4 78 -14 171 -19 185
-4 8 -8 43 -10 78 -2 34 -6 68 -10 74 -4 7 -9 37 -10 68 -3 49 -7 98 -12 138
-2 14 -55 72 -67 72 -4 0 -27 23 -52 50 -25 28 -49 50 -55 50 -5 0 -30 22 -54
49 -25 28 -54 53 -64 56 -11 4 -20 13 -20 20 0 15 -60 65 -78 65 -7 0 -12 5
-12 12 0 20 -52 68 -73 68 -18 0 -19 -5 -14 -50z"/>
<path d="M2100 5032 c0 -4 18 -25 39 -46 53 -52 77 -38 25 15 -35 36 -64 50
-64 31z"/>
<path d="M4652 4940 c-40 -28 -54 -50 -33 -50 15 0 101 60 101 71 0 17 -27 9
-68 -21z"/>
<path d="M1937 4943 c-12 -18 5 -113 19 -113 10 0 14 13 14 43 0 44 -21 89
-33 70z"/>
<path d="M2210 4922 c0 -5 12 -19 28 -33 48 -44 60 -51 67 -40 3 6 -11 27 -32
46 -36 33 -63 45 -63 27z"/>
<path d="M4527 4858 c-45 -29 -59 -48 -36 -48 16 0 88 44 93 57 10 24 -11 21
-57 -9z"/>
<path d="M4815 4870 c-13 -21 -18 -110 -6 -110 15 0 31 42 31 80 0 30 -14 47
-25 30z"/>
<path d="M2330 4817 c0 -16 72 -87 88 -87 25 0 11 27 -32 63 -49 40 -56 44
-56 24z"/>
<path d="M5441 4783 c-25 -20 -50 -38 -58 -39 -8 -1 -33 -18 -56 -37 -23 -19
-55 -41 -72 -50 -16 -9 -48 -32 -70 -52 -22 -19 -44 -35 -50 -35 -5 0 -30 -16
-55 -35 -25 -19 -65 -48 -90 -65 -25 -16 -65 -50 -89 -75 -41 -42 -45 -50 -46
-98 0 -28 -4 -58 -9 -65 -4 -7 -6 -29 -5 -50 1 -20 -3 -53 -10 -73 -6 -20 -11
-54 -10 -75 0 -22 -4 -59 -9 -84 -6 -26 -7 -49 -1 -56 5 -6 5 -15 0 -20 -5 -5
-11 -24 -14 -41 -6 -30 -4 -33 17 -33 12 0 33 12 47 26 13 14 40 34 60 45 20
10 47 31 61 46 13 15 46 39 72 53 27 13 57 36 69 51 11 15 29 30 42 33 12 3
38 21 58 41 20 19 39 35 42 35 12 0 90 59 139 104 46 42 48 47 44 88 -2 24 2
58 9 76 8 18 14 54 15 80 0 26 4 54 9 64 5 9 11 40 13 70 3 29 9 71 13 93 13
63 10 109 -7 113 -9 1 -35 -14 -59 -35z"/>
<path d="M1950 4743 c0 -53 13 -84 29 -68 13 13 0 107 -17 113 -8 2 -12 -10
-12 -45z"/>
<path d="M4382 4766 c-45 -32 -47 -35 -29 -41 16 -7 97 41 97 56 0 16 -35 8
-68 -15z"/>
<path d="M2447 4713 c-2 -5 -1 -30 2 -58 4 -35 11 -50 21 -50 11 0 14 11 11
50 -1 27 -5 53 -7 57 -7 10 -22 10 -27 1z"/>
<path d="M4786 4683 c-9 -57 -7 -73 8 -73 12 0 26 47 26 93 0 34 -27 17 -34
-20z"/>
<path d="M4256 4682 c-41 -28 -57 -52 -34 -52 18 1 92 53 90 65 -1 18 -17 14
-56 -13z"/>
<path d="M2572 4583 c3 -50 28 -75 28 -27 0 26 1 26 18 11 23 -21 42 -22 42
-3 0 15 -62 66 -80 66 -7 0 -10 -17 -8 -47z"/>
<path d="M4155 4600 c-19 -37 -19 -70 -1 -70 15 0 19 10 31 68 8 41 -9 43 -30
2z"/>
<path d="M1967 4583 c5 -38 34 -73 59 -73 20 0 17 27 -4 42 -10 7 -22 25 -26
41 -3 15 -13 27 -21 27 -10 0 -12 -9 -8 -37z"/>
<path d="M4776 4558 c-20 -63 -13 -115 12 -85 16 19 19 89 5 94 -7 3 -15 -1
-17 -9z"/>
<path d="M2462 4509 c2 -32 8 -54 16 -57 10 -3 12 9 10 49 -2 32 -8 54 -16 57
-10 3 -12 -9 -10 -49z"/>
<path d="M2670 4522 c0 -4 20 -27 44 -51 56 -55 75 -37 20 20 -35 36 -64 50
-64 31z"/>
<path d="M3973 4484 c-24 -14 -43 -32 -43 -40 0 -20 17 -18 51 7 l29 20 0 -50
c0 -37 4 -51 14 -51 21 0 26 94 6 120 -15 19 -15 19 -57 -6z"/>
<path d="M2062 4474 c4 -24 74 -78 88 -69 8 5 -1 20 -26 46 -40 41 -68 51 -62
23z"/>
<path d="M2586 4483 c-3 -3 -6 -33 -6 -65 0 -45 3 -58 15 -58 12 0 15 13 15
59 0 56 -9 79 -24 64z"/>
<path d="M4136 4459 c-10 -54 -7 -89 8 -89 16 0 33 78 22 105 -9 25 -23 17
-30 -16z"/>
<path d="M1976 4442 c-9 -14 9 -115 22 -120 8 -2 12 10 12 44 l0 48 28 -27
c27 -26 62 -36 62 -19 0 4 -17 25 -38 45 -35 34 -74 48 -86 29z"/>
<path d="M4757 4423 c-4 -3 -7 -14 -7 -24 0 -10 -13 -26 -30 -36 -16 -9 -30
-20 -30 -24 0 -17 30 -16 59 2 25 15 31 25 31 54 0 33 -8 43 -23 28z"/>
<path d="M2786 4412 c-6 -10 1 -19 46 -61 55 -51 70 -29 17 25 -44 45 -54 50
-63 36z"/>
<path d="M3832 4390 c-41 -29 -53 -50 -31 -50 19 0 100 61 94 71 -9 14 -19 11
-63 -21z"/>
<path d="M2470 4363 c0 -50 11 -79 27 -70 13 8 0 110 -14 115 -9 2 -13 -10
-13 -45z"/>
<path d="M8082 4399 c-48 -14 -106 -77 -121 -131 -9 -30 -12 -89 -9 -170 3
-109 6 -128 28 -168 37 -65 95 -95 185 -95 92 1 143 27 182 92 26 44 28 58 32
164 4 142 -13 212 -62 262 -52 52 -149 71 -235 46z m153 -112 c28 -28 34 -42
40 -101 8 -74 0 -174 -18 -213 -24 -54 -119 -72 -162 -29 -31 31 -45 85 -45
176 1 145 31 200 112 200 32 0 47 -7 73 -33z"/>
<path d="M8566 4395 c-91 -32 -131 -125 -91 -209 22 -46 51 -67 155 -110 113
-48 135 -82 85 -131 -44 -45 -142 -29 -171 27 -10 20 -21 27 -32 24 -9 -3 -29
-8 -44 -12 -34 -8 -34 -17 -5 -69 26 -47 73 -73 145 -82 161 -19 268 90 217
222 -20 54 -47 74 -151 115 -113 44 -137 78 -89 125 43 44 127 24 147 -35 4
-12 12 -11 51 4 26 10 47 21 47 25 0 5 -10 23 -23 42 -45 69 -150 97 -241 64z"/>
<path d="M9839 4399 c-20 -6 -52 -26 -70 -45 -31 -32 -34 -40 -34 -99 0 -97
20 -117 188 -189 50 -21 69 -34 73 -52 9 -37 -3 -69 -31 -82 -57 -26 -126 -7
-151 41 -11 20 -20 27 -32 22 -9 -3 -30 -9 -45 -12 -25 -5 -28 -9 -22 -31 19
-78 85 -117 195 -117 129 0 194 56 195 166 0 85 -29 116 -155 169 -96 41 -120
59 -120 94 0 54 100 76 144 33 13 -13 25 -29 28 -37 3 -11 12 -10 49 2 34 12
43 19 41 34 -6 30 -41 73 -74 90 -39 20 -131 27 -179 13z"/>
<path d="M10305 4394 c-52 -19 -83 -49 -108 -104 -18 -38 -21 -65 -21 -170 1
-144 17 -199 75 -243 96 -72 255 -54 317 37 47 69 55 286 15 377 -45 101 -163
145 -278 103z m143 -90 c41 -29 52 -66 52 -179 0 -115 -13 -162 -51 -189 -33
-22 -91 -20 -122 4 -34 27 -47 76 -47 180 0 104 13 153 47 180 31 24 89 26
121 4z"/>
<path d="M11706 4395 c-55 -19 -94 -61 -111 -119 -18 -60 -20 -238 -3 -303 24
-96 123 -154 238 -138 80 11 136 61 154 137 5 24 3 27 -27 33 -17 4 -39 9 -49
11 -12 3 -19 -5 -28 -31 -14 -43 -44 -65 -88 -65 -83 0 -107 44 -106 200 0
158 23 200 109 200 41 0 80 -32 91 -75 6 -25 9 -26 48 -20 22 4 44 10 48 14
13 12 -12 81 -43 115 -46 53 -150 71 -233 41z"/>
<path d="M12412 4399 c-47 -14 -109 -79 -122 -131 -7 -23 -12 -93 -12 -155 1
-99 4 -121 26 -168 40 -88 122 -126 235 -107 129 22 173 92 174 277 1 136 -18
201 -69 243 -59 48 -150 64 -232 41z m137 -94 c43 -22 56 -65 56 -190 0 -93
-3 -115 -20 -145 -39 -66 -141 -66 -179 0 -16 26 -21 57 -24 133 -6 149 27
217 106 217 18 0 46 -7 61 -15z"/>
<path d="M13860 4397 c-49 -16 -76 -38 -95 -73 -33 -65 -7 -159 57 -200 18
-12 61 -32 95 -45 77 -29 100 -46 108 -81 10 -40 -31 -78 -85 -78 -40 0 -100
23 -100 38 0 5 -6 16 -13 26 -12 16 -18 17 -55 5 -23 -7 -42 -16 -42 -22 0
-26 47 -87 84 -108 60 -34 173 -34 235 1 75 42 102 128 65 207 -21 42 -39 55
-151 103 -107 46 -130 73 -97 117 29 39 94 44 127 11 13 -13 26 -30 28 -37 4
-10 14 -10 52 0 40 11 46 16 41 34 -11 35 -44 75 -76 91 -41 21 -134 27 -178
11z"/>
<path d="M6128 4120 l86 -280 63 0 c35 0 63 3 63 8 1 4 38 129 84 277 l84 270
-50 3 c-28 2 -53 1 -56 -2 -4 -5 -95 -323 -116 -411 -7 -25 -16 1 -62 165 -30
107 -57 207 -60 223 -6 26 -9 27 -64 27 l-57 0 85 -280z"/>
<path d="M6574 4120 l1 -280 53 0 52 0 0 280 0 280 -54 0 -54 0 2 -280z"/>
<path d="M6790 4119 l0 -281 128 4 c113 3 132 6 172 28 33 18 52 38 70 75 23
45 25 61 25 175 0 106 -4 132 -21 171 -39 84 -99 109 -260 109 l-114 0 0 -281z
m243 171 c39 -31 50 -78 45 -193 -5 -142 -26 -167 -133 -167 l-55 0 0 190 0
190 59 0 c43 0 65 -5 84 -20z"/>
<path d="M7280 4121 l0 -281 56 0 56 0 -4 105 -3 105 35 0 c36 0 36 0 84 -105
l49 -105 58 0 58 0 -43 94 c-24 52 -48 102 -54 112 -8 14 -3 22 20 42 42 36
58 74 58 139 0 131 -49 165 -242 171 l-128 4 0 -281z m241 171 c18 -15 22 -28
21 -67 0 -65 -20 -82 -97 -87 l-60 -3 -3 88 -4 87 60 0 c43 0 66 -5 83 -18z"/>
<path d="M7750 4120 l0 -280 50 0 50 0 0 280 0 280 -50 0 -50 0 0 -280z"/>
<path d="M9050 4395 c0 -3 38 -82 85 -175 l85 -170 0 -105 0 -105 55 0 55 0 0
100 0 100 90 180 90 180 -57 0 -58 0 -54 -120 c-29 -66 -57 -120 -60 -120 -4
0 -32 54 -62 120 l-54 120 -57 0 c-32 0 -58 -2 -58 -5z"/>
<path d="M10700 4120 l0 -280 163 0 163 0 3 45 2 45 -115 0 -116 0 3 235 2
235 -52 0 -53 0 0 -280z"/>
<path d="M11080 4204 c0 -114 5 -214 11 -241 25 -97 128 -150 244 -126 69 15
101 36 128 87 20 38 22 58 25 259 l4 217 -56 0 -55 0 -3 -221 c-3 -218 -3
-221 -27 -240 -30 -25 -101 -25 -131 -1 -31 25 -39 81 -40 285 l0 177 -50 0
-50 0 0 -196z"/>
<path d="M12080 4120 l0 -280 50 0 50 0 0 280 0 280 -50 0 -50 0 0 -280z"/>
<path d="M12810 4120 l0 -280 50 0 51 0 -6 198 -6 197 109 -195 109 -195 56
-3 57 -3 0 281 0 280 -45 0 -45 0 0 -192 -1 -193 -42 80 c-23 44 -71 131 -107
192 l-65 113 -57 0 -58 0 0 -280z"/>
<path d="M13340 4120 l0 -280 165 0 165 0 0 45 0 45 -115 0 -115 0 0 75 0 75
103 0 102 0 -3 45 -4 45 -99 0 -99 0 0 70 0 70 109 0 c104 0 109 1 115 23 3
12 6 32 6 45 0 22 -1 22 -165 22 l-165 0 0 -280z"/>
<path d="M2170 4372 c0 -13 74 -82 88 -82 21 0 13 15 -26 53 -36 35 -62 47
-62 29z"/>
<path d="M2110 4332 c0 -13 74 -82 88 -82 24 0 11 29 -27 59 -38 30 -61 39
-61 23z"/>
<path d="M3692 4298 c-29 -20 -40 -34 -34 -40 13 -13 102 38 102 58 0 21 -21
16 -68 -18z"/>
<path d="M4006 4314 c-12 -31 -7 -104 8 -104 14 0 32 92 21 110 -9 15 -22 12
-29 -6z"/>
<path d="M4125 4286 c-8 -50 0 -85 15 -70 5 5 10 31 12 58 4 65 -18 75 -27 12z"/>
<path d="M2585 4310 c-4 -6 -4 -33 0 -61 8 -56 28 -62 33 -9 6 59 -14 101 -33
70z"/>
<path d="M2904 4298 c-10 -16 77 -91 90 -78 6 6 -1 21 -20 41 -38 41 -61 52
-70 37z"/>
<path d="M4598 4282 c-35 -25 -50 -52 -28 -52 17 0 99 63 94 72 -9 14 -27 8
-66 -20z"/>
<path d="M1992 4229 c2 -32 8 -54 16 -57 10 -3 12 9 10 49 -2 32 -8 54 -16 57
-10 3 -12 -9 -10 -49z"/>
<path d="M2290 4257 c0 -21 77 -90 90 -82 8 5 -2 22 -31 51 -45 46 -59 53 -59
31z"/>
<path d="M4703 4242 c-23 -15 -42 -35 -43 -44 0 -23 9 -22 40 2 35 28 38 26
32 -26 -4 -41 -3 -46 14 -42 15 2 20 13 22 53 2 30 -2 57 -10 67 -12 16 -16
15 -55 -10z"/>
<path d="M2485 4248 c-11 -29 -1 -93 15 -93 11 0 14 11 12 45 -4 49 -18 73
-27 48z"/>
<path d="M3562 4209 c-43 -31 -53 -49 -28 -49 22 0 96 52 96 67 0 21 -23 15
-68 -18z"/>
<path d="M2230 4216 c0 -14 79 -96 92 -96 19 0 5 28 -34 67 -44 45 -58 52 -58
29z"/>
<path d="M4462 4187 c-28 -20 -39 -34 -32 -41 16 -16 100 39 100 64 0 17 -24
9 -68 -23z"/>
<path d="M3027 4193 c-13 -12 -7 -21 33 -53 55 -43 72 -28 24 21 -39 40 -46
44 -57 32z"/>
<path d="M4600 4167 c-71 -37 -100 -67 -65 -67 23 0 95 51 95 66 0 17 1 17
-30 1z"/>
<path d="M3996 4154 c-11 -30 -7 -96 6 -92 13 5 31 85 22 99 -8 14 -21 11 -28
-7z"/>
<path d="M4117 4164 c-4 -4 -7 -29 -7 -56 0 -36 4 -48 15 -48 11 0 15 12 17
40 0 22 1 45 2 52 1 13 -17 21 -27 12z"/>
<path d="M2597 4153 c-14 -14 -7 -94 8 -100 22 -8 23 -4 18 55 -5 49 -11 60
-26 45z"/>
<path d="M2406 4141 c-8 -12 60 -71 83 -71 23 0 37 30 19 41 -6 4 -16 5 -20 3
-5 -3 -21 4 -37 15 -32 23 -37 25 -45 12z"/>
<path d="M3433 4119 c-43 -30 -51 -43 -34 -53 12 -8 103 63 96 75 -9 13 -16
11 -62 -22z"/>
<path d="M2006 4132 c-3 -5 -3 -32 1 -61 4 -36 10 -51 21 -51 12 0 14 10 9 52
-7 52 -20 78 -31 60z"/>
<path d="M4343 4102 c-40 -25 -56 -52 -32 -52 18 0 89 54 89 68 0 18 -10 15
-57 -16z"/>
<path d="M2355 4099 c-10 -15 69 -94 84 -85 15 9 4 26 -41 65 -24 21 -39 28
-43 20z"/>
<path d="M3140 4076 c0 -7 7 -19 15 -26 8 -7 15 -19 15 -26 0 -8 7 -14 15 -14
21 0 19 43 -3 63 -23 21 -42 22 -42 3z"/>
<path d="M4725 4068 c-11 -45 -10 -101 2 -105 14 -5 21 17 25 76 3 48 -17 70
-27 29z"/>
<path d="M4418 4053 c-40 -27 -48 -43 -23 -43 22 0 96 51 89 61 -9 14 -27 9
-66 -18z"/>
<path d="M3332 4038 c-15 -15 -16 -108 -2 -108 13 0 17 12 24 73 6 48 0 57
-22 35z"/>
<path d="M4215 4016 c-16 -13 -40 -27 -52 -31 -19 -5 -23 -2 -23 14 0 12 -7
21 -15 21 -21 0 -19 -40 3 -56 9 -7 25 -14 35 -14 20 0 107 66 107 81 0 16
-24 9 -55 -15z"/>
<path d="M2600 3965 c0 -43 16 -65 49 -65 16 0 13 26 -4 40 -8 7 -15 25 -15
41 0 19 -5 29 -15 29 -11 0 -15 -12 -15 -45z"/>
<path d="M3987 4003 c-4 -3 -7 -28 -7 -55 0 -69 24 -59 28 10 3 48 -4 62 -21
45z"/>
<path d="M2460 3985 c0 -9 7 -18 15 -21 8 -4 15 -17 15 -30 0 -15 6 -24 15
-24 22 0 19 53 -3 73 -23 21 -42 22 -42 2z"/>
<path d="M2015 3968 c-7 -26 7 -72 25 -83 18 -11 36 11 22 27 -5 7 -12 26 -14
42 -4 37 -25 45 -33 14z"/>
<path d="M4283 3959 c-42 -30 -54 -49 -31 -49 16 0 108 60 108 71 0 18 -36 8
-77 -22z"/>
<path d="M3172 3916 c3 -31 8 -59 11 -63 16 -15 28 17 25 63 -2 38 -7 50 -22
52 -17 4 -18 -1 -14 -52z"/>
<path d="M4707 3913 c-3 -5 -8 -32 -12 -61 -6 -49 -5 -54 11 -50 16 3 20 14
22 61 3 50 -7 73 -21 50z"/>
<path d="M4143 3866 c-29 -17 -52 -37 -53 -44 0 -23 29 -25 52 -3 13 11 34 29
48 40 45 35 9 40 -47 7z"/>
<path d="M3315 3856 c-8 -42 -3 -78 11 -83 13 -4 30 89 19 107 -12 19 -24 10
-30 -24z"/>
<path d="M2494 3840 c3 -18 6 -43 6 -56 0 -15 6 -24 16 -24 12 0 14 10 12 52
-2 43 -7 54 -22 56 -16 4 -18 0 -12 -28z"/>
<path d="M2680 3856 c0 -23 71 -79 83 -67 8 8 1 21 -23 46 -35 36 -60 45 -60
21z"/>
<path d="M2080 3853 c1 -5 19 -28 40 -53 29 -33 42 -42 51 -33 8 8 1 22 -26
52 -33 37 -66 54 -65 34z"/>
<path d="M3970 3841 c0 -10 -17 -31 -37 -47 -21 -15 -40 -29 -42 -31 -3 -2 0
-8 5 -13 7 -7 26 0 57 20 39 25 47 35 47 60 0 20 -5 30 -15 30 -8 0 -15 -8
-15 -19z"/>
<path d="M2612 3818 c-15 -15 -15 -48 -2 -83 12 -32 30 -24 30 12 l0 27 28
-27 c30 -29 52 -35 52 -15 0 12 -79 98 -90 98 -3 0 -11 -5 -18 -12z"/>
<path d="M3182 3754 c2 -36 8 -59 16 -62 10 -3 12 10 10 54 -2 36 -8 59 -16
62 -10 3 -12 -10 -10 -54z"/>
<path d="M4086 3748 c-11 -42 -7 -88 8 -88 12 0 26 47 26 93 0 25 -27 21 -34
-5z"/>
<path d="M2790 3752 c0 -4 18 -25 39 -46 53 -52 77 -38 25 15 -35 36 -64 50
-64 31z"/>
<path d="M4683 3710 c-7 -32 -7 -53 -1 -56 16 -10 27 10 34 59 5 38 4 47 -8
47 -10 0 -19 -17 -25 -50z"/>
<path d="M2195 3740 c-7 -11 60 -90 77 -90 19 0 5 29 -31 64 -26 26 -41 34
-46 26z"/>
<path d="M3314 3727 c-9 -25 0 -100 14 -105 8 -3 12 12 12 52 0 53 -14 83 -26
53z"/>
<path d="M3802 3702 c-30 -25 -42 -52 -24 -52 12 0 92 63 92 72 0 17 -37 6
-68 -20z"/>
<path d="M2504 3683 c3 -21 6 -46 6 -55 0 -10 7 -18 16 -18 13 0 15 7 10 31
-3 17 -6 42 -6 55 0 16 -6 24 -16 24 -14 0 -15 -7 -10 -37z"/>
<path d="M2736 3693 c-8 -9 64 -83 81 -83 22 0 15 14 -25 53 -40 39 -44 41
-56 30z"/>
<path d="M3954 3687 c-9 -25 0 -62 16 -62 10 0 15 10 15 34 0 36 -21 54 -31
28z"/>
<path d="M2614 3666 c-7 -17 0 -94 9 -103 3 -3 11 -2 17 2 7 4 9 23 4 53 -7
53 -20 74 -30 48z"/>
<path d="M3877 3643 c-35 -25 -49 -53 -26 -53 15 0 76 48 83 66 8 22 -15 17
-57 -13z"/>
<path d="M2900 3642 c0 -4 18 -26 40 -47 30 -30 43 -36 52 -27 9 9 2 20 -27
47 -37 33 -65 45 -65 27z"/>
<path d="M3182 3593 c4 -81 28 -85 28 -4 0 48 -3 61 -15 61 -13 0 -15 -11 -13
-57z"/>
<path d="M3676 3607 c-25 -22 -35 -36 -28 -41 14 -9 92 42 92 60 0 23 -23 16
-64 -19z"/>
<path d="M4598 3612 c-36 -26 -50 -52 -27 -52 15 0 89 59 89 71 0 16 -24 9
-62 -19z"/>
<path d="M2300 3617 c0 -16 62 -77 78 -77 22 0 13 26 -21 58 -35 34 -57 41
-57 19z"/>
<path d="M4076 3604 c-3 -9 -6 -38 -6 -65 0 -37 4 -49 15 -49 10 0 15 10 15
28 0 15 3 44 6 65 5 29 3 37 -9 37 -8 0 -18 -7 -21 -16z"/>
<path d="M2850 3576 c0 -7 18 -30 41 -51 31 -28 44 -34 53 -25 8 8 1 21 -31
51 -44 41 -63 48 -63 25z"/>
<path d="M3956 3583 c-9 -10 -7 -113 3 -113 13 0 21 26 21 70 0 37 -10 56 -24
43z"/>
<path d="M3310 3519 c0 -81 24 -77 28 4 2 46 0 57 -13 57 -12 0 -15 -13 -15
-61z"/>
<path d="M3751 3550 c-22 -17 -41 -37 -41 -45 0 -8 3 -15 6 -15 11 0 94 61 94
70 0 21 -20 18 -59 -10z"/>
<path d="M2517 3564 c-11 -12 -8 -112 4 -120 18 -11 27 15 21 64 -5 49 -13 67
-25 56z"/>
<path d="M3015 3540 c-7 -12 53 -70 72 -70 22 0 14 17 -22 49 -40 34 -41 35
-50 21z"/>
<path d="M3560 3523 c-45 -35 -53 -47 -35 -51 16 -4 95 54 95 69 0 17 -25 9
-60 -18z"/>
<path d="M4472 3519 c-41 -30 -53 -49 -32 -49 20 0 90 51 90 65 0 22 -11 19
-58 -16z"/>
<path d="M2627 3524 c-10 -10 -8 -86 2 -103 17 -27 31 -1 24 47 -6 49 -15 67
-26 56z"/>
<path d="M2410 3507 c0 -16 62 -77 78 -77 23 0 12 28 -23 59 -38 33 -55 39
-55 18z"/>
<path d="M3180 3451 l0 -41 -21 21 c-16 16 -24 18 -32 9 -9 -8 -4 -18 21 -41
18 -16 37 -29 42 -29 32 0 40 112 8 118 -15 3 -18 -4 -18 -37z"/>
<path d="M3625 3459 c-46 -34 -55 -49 -28 -49 27 1 90 56 78 69 -7 6 -23 0
-50 -20z"/>
<path d="M2970 3462 c0 -4 17 -25 38 -45 33 -32 41 -36 51 -24 9 12 4 21 -28
46 -38 30 -61 39 -61 23z"/>
<path d="M3410 3413 l-65 -45 -3 31 c-2 19 -9 31 -18 31 -24 0 -15 -84 9 -88
23 -5 157 84 157 104 0 21 -9 17 -80 -33z"/>
<path d="M4067 3444 c-4 -4 -7 -31 -7 -61 0 -40 4 -53 15 -53 11 0 15 12 15
50 0 28 0 53 1 57 1 10 -16 15 -24 7z"/>
<path d="M4343 3420 c-33 -30 -42 -50 -22 -50 13 0 89 62 89 73 0 17 -37 4
-67 -23z"/>
<path d="M3947 3434 c-4 -4 -7 -34 -7 -66 0 -78 24 -76 28 2 3 50 -6 78 -21
64z"/>
<path d="M3486 3357 c-53 -45 -31 -58 29 -17 25 17 45 35 45 40 0 20 -36 8
-74 -23z"/>
<path d="M2630 3327 c0 -58 8 -81 24 -68 15 13 6 103 -11 109 -9 2 -13 -10
-13 -41z"/>
<path d="M3080 3362 c0 -4 20 -27 44 -51 56 -55 75 -37 20 20 -35 36 -64 50
-64 31z"/>
<path d="M4210 3320 c-25 -22 -31 -33 -23 -41 9 -9 22 -3 52 22 22 19 41 37
41 42 0 17 -37 4 -70 -23z"/>
<path d="M3357 3273 c-26 -18 -37 -33 -35 -46 4 -24 28 -36 28 -14 0 9 16 25
35 37 33 21 42 40 19 46 -5 2 -26 -9 -47 -23z"/>
<path d="M4067 3293 c-11 -17 -10 -79 0 -98 11 -18 12 -18 52 9 40 28 54 56
27 56 -7 0 -19 -7 -26 -15 -19 -23 -30 -18 -30 14 0 29 -14 49 -23 34z"/>
<path d="M3937 3263 c-4 -3 -7 -31 -7 -60 0 -76 24 -67 28 10 3 52 -4 68 -21
50z"/>
<path d="M3187 3236 c-11 -28 5 -116 20 -116 11 0 13 14 11 62 -3 59 -19 86
-31 54z"/>
<path d="M2670 3222 c0 -10 73 -82 83 -82 17 0 4 29 -26 58 -31 30 -57 41 -57
24z"/>
<path d="M3320 3109 c0 -81 24 -77 28 4 2 46 0 57 -13 57 -12 0 -15 -13 -15
-61z"/>
<path d="M2780 3107 c0 -22 79 -92 90 -81 8 8 -2 24 -30 52 -41 43 -60 52 -60
29z"/>
<path d="M3922 3108 c-7 -7 -12 -17 -12 -22 0 -6 -16 -21 -35 -34 -39 -25 -45
-42 -16 -42 18 0 91 71 91 89 0 16 -16 21 -28 9z"/>
<path d="M3192 3024 c2 -36 8 -59 16 -62 10 -3 12 10 10 54 -2 36 -8 59 -16
62 -10 3 -12 -10 -10 -54z"/>
<path d="M3320 2944 c0 -48 3 -65 13 -62 7 3 13 28 15 66 2 51 0 62 -13 62
-12 0 -15 -13 -15 -66z"/>
<path d="M2890 2992 c0 -10 73 -82 83 -82 17 0 4 29 -26 58 -31 30 -57 41 -57
24z"/>
<path d="M3762 2959 c-43 -31 -50 -43 -32 -54 13 -8 90 54 90 72 0 20 -12 16
-58 -18z"/>
<path d="M3197 2913 c-9 -8 -9 -86 -1 -107 3 -9 12 -16 19 -16 10 0 12 15 10
58 -3 31 -4 60 -5 65 0 9 -14 9 -23 0z"/>
<path d="M3000 2882 c0 -10 73 -82 83 -82 17 0 4 29 -26 58 -31 30 -57 41 -57
24z"/>
<path d="M3638 2859 c-39 -32 -48 -49 -25 -49 15 0 87 58 87 71 0 17 -25 8
-62 -22z"/>
<path d="M3320 2785 c0 -41 3 -56 13 -52 7 2 12 22 12 52 0 30 -5 50 -12 53
-10 3 -13 -12 -13 -53z"/>
<path d="M3515 2759 c-43 -32 -54 -49 -34 -49 20 0 89 51 89 66 0 20 -10 17
-55 -17z"/>
<path d="M3116 2773 c-9 -10 55 -73 75 -73 24 0 40 22 29 40 -7 11 -12 12 -20
4 -9 -9 -18 -5 -37 12 -27 25 -35 28 -47 17z"/>
<path d="M3320 2661 c0 -34 22 -55 47 -47 28 10 89 64 80 72 -4 4 -25 -2 -46
-14 -47 -27 -47 -27 -54 -2 -8 30 -27 24 -27 -9z"/>
</g>
</svg>
